<svg xmlns="http://www.w3.org/2000/svg" viewBox="0 0 512 512">
  <defs>
    <linearGradient id="grad1" x1="0%" y1="0%" x2="100%" y2="100%">
      <stop offset="0%" style="stop-color:#ffffff;stop-opacity:1" />
      <stop offset="100%" style="stop-color:#f0f0f0;stop-opacity:1" />
    </linearGradient>
  </defs>
  
  <!-- App Icon Background Circle -->
  <circle cx="256" cy="256" r="256" fill="#333333" />
  
  <!-- Scale Body -->
  <rect x="106" y="106" width="300" height="300" rx="40" ry="40" fill="url(#grad1)" />
  
  <!-- Inner Ring / Platform border -->
  <rect x="126" y="126" width="260" height="260" rx="30" ry="30" fill="none" stroke="#e0e0e0" stroke-width="4" />

  <!-- LCD Display Area -->
  <rect x="166" y="320" width="180" height="50" rx="5" ry="5" fill="#222222" />
  
  <!-- Digital Numbers (0.0) -->
  <g fill="#00ffcc" font-family="monospace" font-weight="bold" font-size="40" text-anchor="middle">
      <text x="256" y="358">0.0</text>
  </g>

  <!-- Coffee Drip / Bean Graphic Center -->
  <path d="M256 160 C 256 160, 200 220, 200 250 A 56 56 0 0 0 312 250 C 312 220, 256 160, 256 160 Z" fill="#6f4e37" />
  <path d="M256 160 C 256 160, 220 220, 220 250 A 36 36 0 0 0 292 250 C 292 220, 256 160, 256 160 Z" fill="#4a3424" />

</svg>